<svg width="54" height="70" viewBox="0 0 54 70" fill="none" xmlns="http://www.w3.org/2000/svg">
<g clip-path="url(#clip0_433_1752)">
<path d="M11.8411 8.00033L0 0V6.30286C0.00076417 7.78877 0.365808 9.25184 1.06317 10.564C1.76054 11.8761 2.76896 12.9973 4.00016 13.8295L15.8421 21.8289V15.5305C15.8422 14.0438 15.4774 12.5799 14.7798 11.267C14.0822 9.95414 13.0732 8.83246 11.8411 8.00033Z" fill="#D36480"/>
<path d="M42.1589 8.00033C40.9274 8.83217 39.9187 9.95332 39.2213 11.2655C38.5239 12.5777 38.1591 14.0409 38.1587 15.5269V21.8298L49.9998 13.8339C51.2311 13.0019 52.2397 11.8808 52.9371 10.5686C53.6345 9.2564 53.9994 7.79324 53.9999 6.30729V0L42.1589 8.00033Z" fill="#F3E04E"/>
<path d="M37.9914 43.3506L12.6567 26.2351V31.9659C12.6568 33.34 12.994 34.6931 13.6388 35.9065C14.2835 37.1199 15.2162 38.1567 16.3549 38.9258L41.6825 56.036V50.2954C41.6824 48.9242 41.3458 47.574 40.7022 46.3632C40.0587 45.1524 39.1279 44.118 37.9914 43.3506Z" fill="#D36480"/>
<path d="M34.11 50.9249L29.0684 54.3305V64.5268L41.656 56.0226L34.11 50.9249Z" fill="#F3E04E"/>
<path d="M29.0677 37.3257V27.9485L27.0001 29.3458L24.96 27.968V34.5471L29.0677 37.3257Z" fill="#96999C"/>
<path d="M29.0684 34.8552V37.3133L34.7883 41.1864L37.9463 39.0497C39.1008 38.2699 40.0462 37.2187 40.6998 35.9885C41.3534 34.7582 41.6951 33.3864 41.695 31.9933V26.3245L29.0684 34.8552Z" fill="#F3E04E"/>
<path d="M24.9599 44.7434V67.943C24.9542 68.2163 25.0032 68.488 25.1038 68.7422C25.2045 68.9963 25.3549 69.2279 25.5462 69.4231C25.7374 69.6184 25.9658 69.7736 26.2178 69.8795C26.4698 69.9854 26.7404 70.04 27.0138 70.04C27.2872 70.04 27.5578 69.9854 27.8098 69.8795C28.0618 69.7736 28.2901 69.6184 28.4814 69.4231C28.6727 69.2279 28.8231 68.9963 28.9237 68.7422C29.0244 68.488 29.0733 68.2163 29.0677 67.943V47.5185L24.9599 44.7434Z" fill="#96999C"/>
<path d="M24.9602 44.7434L19.6228 41.1368L12.6816 45.8264L20.2286 50.925L24.9602 47.7372V44.7434Z" fill="#F3E04E"/>
<path d="M24.9601 54.1216L12.6567 45.8096V51.6812C12.6568 53.0129 12.9835 54.3243 13.6084 55.5004C14.2332 56.6764 15.1371 57.6813 16.2407 58.4268L24.9601 64.3179V54.1216Z" fill="#D36480"/>
<path d="M27.0003 10.6921C24.0483 10.6919 21.2171 11.8641 19.1293 13.9509C17.0416 16.0378 15.8684 18.8683 15.8677 21.82L27.0003 29.3404L38.132 21.82C38.1313 18.8685 36.9582 16.0381 34.8707 13.9512C32.7832 11.8644 29.9522 10.6921 27.0003 10.6921Z" fill="#D36480"/>
</g>
<defs>
<clipPath id="clip0_433_1752">
<rect width="54" height="70" fill="white"/>
</clipPath>
</defs>
</svg>
