<svg width="30" height="30" viewBox="0 0 30 30" fill="none" xmlns="http://www.w3.org/2000/svg">
<path fill-rule="evenodd" clip-rule="evenodd" d="M24 5H6C4.89543 5 4 5.89543 4 7V23C4 24.1046 4.89543 25 6 25H24C25.1046 25 26 24.1046 26 23V7C26 5.89543 25.1046 5 24 5ZM6 3C3.79086 3 2 4.79086 2 7V23C2 25.2091 3.79086 27 6 27H24C26.2091 27 28 25.2091 28 23V7C28 4.79086 26.2091 3 24 3H6Z" fill="#004FC5"/>
<path d="M11.9005 9.86632C11.9062 10.1151 11.8622 10.3625 11.771 10.594C11.6798 10.8254 11.5432 11.0364 11.3693 11.2143C11.1955 11.3923 10.9877 11.5337 10.7584 11.6303C10.5291 11.7268 10.2828 11.7765 10.034 11.7765C9.78518 11.7765 9.53887 11.7268 9.30955 11.6303C9.08023 11.5337 8.87253 11.3923 8.69864 11.2143C8.52475 11.0364 8.38818 10.8254 8.29697 10.594C8.20576 10.3625 8.16173 10.1151 8.16749 9.86632C8.17551 9.37652 8.37571 8.90949 8.72492 8.56595C9.07413 8.22241 9.54437 8.02988 10.0342 8.02988C10.5241 8.02988 10.9944 8.22241 11.3436 8.56595C11.6928 8.90949 11.893 9.37652 11.901 9.86632H11.9005Z" fill="#004FC5"/>
<path fill-rule="evenodd" clip-rule="evenodd" d="M7.84801 15.9974C7.70744 16.2223 7.48329 16.3822 7.22487 16.4418C6.96644 16.5015 6.69491 16.456 6.47001 16.3154C6.2451 16.1749 6.08525 15.9507 6.02561 15.6923C5.96598 15.4339 6.01144 15.1623 6.15201 14.9374L6.15401 14.9344L6.15751 14.9289L6.16951 14.9099C6.23293 14.81 6.29811 14.7111 6.36501 14.6134C6.49251 14.4259 6.67201 14.1719 6.87601 13.9134C7.07551 13.6614 7.32051 13.3769 7.57951 13.1459C7.70901 13.0304 7.86501 12.9074 8.04151 12.8084C8.20751 12.7154 8.46701 12.6004 8.78451 12.6004H11.2825C11.6 12.6004 11.8595 12.7154 12.026 12.8084C12.202 12.9074 12.3585 13.0304 12.4875 13.1459C12.7465 13.3769 12.992 13.6614 13.191 13.9139C13.4428 14.2341 13.6786 14.5665 13.8975 14.9099L13.91 14.9289L13.9135 14.9339L13.915 14.9369C13.915 14.9369 13.8975 14.9099 13.915 14.9369C14.0517 15.1617 14.0944 15.4312 14.0337 15.6872C13.9731 15.9432 13.814 16.1649 13.5909 16.3044C13.3679 16.4439 13.0989 16.4899 12.8422 16.4325C12.5855 16.375 12.3618 16.2187 12.2195 15.9974L12.218 15.9954L12.21 15.9829C12.185 15.9435 12.1597 15.9044 12.134 15.8654V17.1074L12.4955 20.9049C12.5182 21.1638 12.4393 21.4213 12.2755 21.623C12.1116 21.8247 11.8757 21.9546 11.6176 21.9854C11.3596 22.0161 11.0998 21.9452 10.8931 21.7877C10.6865 21.6302 10.5492 21.3984 10.5105 21.1414L10 17.5714L9.49001 21.1414C9.45349 21.4004 9.31701 21.6347 9.10981 21.7942C8.90261 21.9537 8.64118 22.0257 8.38153 21.9948C8.12188 21.9638 7.88467 21.8324 7.72074 21.6287C7.5568 21.425 7.47918 21.1652 7.50451 20.9049L7.92451 16.4999H7.93351V15.8649C7.9077 15.9041 7.8822 15.9434 7.85701 15.9829L7.84951 15.9954L7.84801 15.9974Z" fill="#004FC5"/>
<path d="M21.9005 9.86626C21.9005 10.3614 21.7038 10.8362 21.3537 11.1863C21.0036 11.5363 20.5288 11.733 20.0337 11.733C19.5387 11.733 19.0638 11.5363 18.7138 11.1863C18.3637 10.8362 18.167 10.3614 18.167 9.86626C18.167 9.37117 18.3637 8.89635 18.7138 8.54627C19.0638 8.19619 19.5387 7.99951 20.0337 7.99951C20.5288 7.99951 21.0036 8.19619 21.3537 8.54627C21.7038 8.89635 21.9005 9.37117 21.9005 9.86626V9.86626Z" fill="#004FC5"/>
<path fill-rule="evenodd" clip-rule="evenodd" d="M17.8507 15.8925C17.7092 16.1137 17.4865 16.2703 17.2305 16.3287C16.9745 16.387 16.7058 16.3423 16.4825 16.2043C16.2592 16.0662 16.0991 15.8459 16.0368 15.5908C15.9746 15.3357 16.0151 15.0664 16.1497 14.841L16.1512 14.838L16.1552 14.8325L16.1667 14.8135L16.2092 14.7465C16.4143 14.4273 16.6333 14.1174 16.8657 13.8175C17.0627 13.5655 17.3057 13.2805 17.5617 13.049C17.6902 12.9335 17.8452 12.8095 18.0207 12.7105C18.1857 12.6165 18.4457 12.5 18.7647 12.5H21.2357C21.5547 12.5 21.8147 12.6165 21.9802 12.71C22.1552 12.81 22.3102 12.9335 22.4387 13.049C22.6952 13.2805 22.9377 13.5655 23.1347 13.8175C23.3839 14.1377 23.6172 14.4699 23.8337 14.813L23.8457 14.8325L23.8507 14.841C23.9902 15.0666 24.0344 15.3383 23.9735 15.5965C23.9127 15.8546 23.7518 16.078 23.5262 16.2175C23.3006 16.357 23.0289 16.4012 22.7708 16.3403C22.5126 16.2795 22.2892 16.1186 22.1497 15.893L22.1482 15.8905L22.1407 15.878C22.0655 15.7595 21.988 15.6425 21.9082 15.527C22.1422 16.692 22.6032 18.29 22.8442 19.098C22.8643 19.1636 22.8706 19.2327 22.8626 19.3008C22.8547 19.369 22.8326 19.4348 22.798 19.494C22.7633 19.5532 22.7167 19.6046 22.6611 19.6448C22.6056 19.6851 22.5423 19.7134 22.4752 19.728C20.7067 20.0965 19.4687 20.087 17.5482 19.721C17.4793 19.7074 17.414 19.6795 17.3566 19.639C17.2992 19.5985 17.2511 19.5463 17.2152 19.4859C17.1793 19.4255 17.1566 19.3582 17.1485 19.2885C17.1404 19.2187 17.1471 19.148 17.1682 19.081C17.4207 18.269 17.8902 16.688 18.1127 15.497C18.0259 15.6224 17.9416 15.7494 17.8597 15.878L17.8522 15.8905L17.8507 15.8925V15.8925Z" fill="#004FC5"/>
<path fill-rule="evenodd" clip-rule="evenodd" d="M17.7993 20.5757V21.2497C17.7995 21.4314 17.8657 21.6069 17.9855 21.7435C18.1054 21.8801 18.2708 21.9686 18.451 21.9924C18.6311 22.0163 18.8138 21.9739 18.9651 21.8731C19.1163 21.7724 19.2259 21.6201 19.2733 21.4447L19.4708 20.7127C18.9118 20.6928 18.3541 20.6471 17.7993 20.5757ZM20.6268 20.7107L20.8253 21.4452C20.8728 21.6206 20.9823 21.7729 21.1337 21.8737C21.285 21.9744 21.4677 22.0168 21.6479 21.9929C21.8281 21.969 21.9935 21.8804 22.1133 21.7437C22.2332 21.607 22.2993 21.4315 22.2993 21.2497V20.5687C21.7442 20.6406 21.1861 20.6879 20.6268 20.7102V20.7107Z" fill="#004FC5"/>
</svg>
