<svg width="36" height="36" viewBox="0 0 36 36" fill="none" xmlns="http://www.w3.org/2000/svg">
<path d="M18 24C20.49 24 22.5 22.035 22.5 19.545V9.015C22.5 6.525 20.49 4.5 18 4.5C15.51 4.5 13.5 6.51 13.5 9.015V19.545C13.5 22.035 15.51 24 18 24Z" fill="#4285F4"/>
<path d="M16.5 27H19.5V33H16.5V27Z" fill="#34A853"/>
<path d="M10.1585 25.4846C8.51153 23.4406 7.5 21.1352 7.5 18H10.0937C10.0937 20.2285 10.8199 21.7193 12 23.1947V23.6865L10.5086 25.5L10.1585 25.4846Z" fill="#FBBC05"/>
<path d="M17.9623 25.395C16.9706 25.3979 15.9883 25.194 15.0722 24.7948C14.1561 24.3957 13.3245 23.8095 12.6256 23.07L10.5 25.305C12.3995 27.315 15.0528 28.5 17.9623 28.5C23.7965 28.5 28.5 24.12 28.5 18H25.5C25.5 22.38 22.1231 25.395 17.9623 25.395Z" fill="#EA4335"/>
</svg>
