<svg width="30" height="30" viewBox="0 0 30 30" fill="none" xmlns="http://www.w3.org/2000/svg">
<path d="M5.08334 27.75C4.30417 27.75 3.63692 27.4723 3.08159 26.917C2.52625 26.3617 2.24906 25.6949 2.25 24.9167V5.08334C2.25 4.30417 2.52767 3.63692 3.083 3.08159C3.63834 2.52625 4.30511 2.24906 5.08334 2.25H24.9167C25.6958 2.25 26.3631 2.52767 26.9184 3.083C27.4738 3.63834 27.7509 4.30511 27.75 5.08334V24.9167C27.75 25.6958 27.4723 26.3631 26.917 26.9184C26.3617 27.4738 25.6949 27.7509 24.9167 27.75H5.08334ZM5.08334 24.9167H24.9167V5.08334H5.08334V24.9167Z" fill="#F47920"/>
</svg>
