<svg width="30" height="30" viewBox="0 0 30 30" fill="none" xmlns="http://www.w3.org/2000/svg">
<path d="M23.75 27.5H6.25C5.58696 27.5 4.95107 27.2366 4.48223 26.7678C4.01339 26.2989 3.75 25.663 3.75 25V7.5C3.75 6.83696 4.01339 6.20107 4.48223 5.73223C4.95107 5.26339 5.58696 5 6.25 5H8.75V2.5H11.25V5H18.75V2.5H21.25V5H23.75C24.413 5 25.0489 5.26339 25.5178 5.73223C25.9866 6.20107 26.25 6.83696 26.25 7.5V25C26.25 25.663 25.9866 26.2989 25.5178 26.7678C25.0489 27.2366 24.413 27.5 23.75 27.5ZM6.25 12.5V25H23.75V12.5H6.25ZM6.25 7.5V10H23.75V7.5H6.25ZM21.25 22.5H18.75V20H21.25V22.5ZM16.25 22.5H13.75V20H16.25V22.5ZM11.25 22.5H8.75V20H11.25V22.5ZM21.25 17.5H18.75V15H21.25V17.5ZM16.25 17.5H13.75V15H16.25V17.5ZM11.25 17.5H8.75V15H11.25V17.5Z" fill="#F47920"/>
</svg>
