<?xml version="1.0" encoding="UTF-8"?><!DOCTYPE svg PUBLIC "-//W3C//DTD SVG 1.1//EN" "http://www.w3.org/Graphics/SVG/1.1/DTD/svg11.dtd"><svg xmlns="http://www.w3.org/2000/svg" xmlns:xlink="http://www.w3.org/1999/xlink"><defs>
<clipPath id="clip0_540_3939">
<rect width="24" height="24" fill="white"/>
</clipPath>

<clipPath id="clip0_522_6858">
<rect width="18" height="18" fill="white"/>
</clipPath>

<clipPath id="clip0_522_6859">
<rect width="18" height="18" fill="white"/>
</clipPath>
</defs><symbol id="beach" viewBox="0 0 28 28"><g fill="none">
<path fill-rule="evenodd" clip-rule="evenodd" d="M6.7601 21.1496C7.58852 21.1496 8.2601 21.8212 8.2601 22.6496C8.2601 23.2119 8.48345 23.7511 8.88103 24.1487C9.2786 24.5463 9.81783 24.7696 10.3801 24.7696C10.9423 24.7696 11.4816 24.5463 11.8791 24.1487C12.2767 23.7511 12.5001 23.2119 12.5001 22.6496C12.5001 21.8212 13.1717 21.1496 14.0001 21.1496C14.8285 21.1496 15.5001 21.8212 15.5001 22.6496C15.5001 23.2119 15.7234 23.7511 16.121 24.1487C16.5186 24.5463 17.0578 24.7696 17.6201 24.7696C18.1823 24.7696 18.7216 24.5463 19.1191 24.1487C19.5167 23.7511 19.7401 23.2119 19.7401 22.6496C19.7401 21.8212 20.4116 21.1496 21.2401 21.1496C22.0685 21.1496 22.7401 21.8212 22.7401 22.6496C22.7401 23.2119 22.9634 23.7511 23.361 24.1487C23.7586 24.5463 24.2978 24.7696 24.8601 24.7696H25.7651C26.5935 24.7696 27.2651 25.4412 27.2651 26.2696C27.2651 27.098 26.5935 27.7696 25.7651 27.7696H24.8601C23.5023 27.7696 22.2002 27.2303 21.2401 26.2704C20.2799 27.2303 18.9778 27.7696 17.6201 27.7696C16.2623 27.7696 14.9602 27.2303 14.0001 26.2704C13.0399 27.2303 11.7378 27.7696 10.3801 27.7696C9.02237 27.7696 7.72025 27.2303 6.7601 26.2704C5.79995 27.2303 4.49783 27.7696 3.14011 27.7696H2.23511C1.40668 27.7696 0.735107 27.098 0.735107 26.2696C0.735107 25.4412 1.40668 24.7696 2.23511 24.7696H3.14011C3.70236 24.7696 4.24159 24.5463 4.63917 24.1487C5.03674 23.7511 5.2601 23.2119 5.2601 22.6496C5.2601 21.8212 5.93167 21.1496 6.7601 21.1496Z" fill="currentColor"/>
<path fill-rule="evenodd" clip-rule="evenodd" d="M6.70171 14.4384C8.27705 13.6943 9.99761 13.3085 11.7398 13.3085C13.482 13.3085 15.2026 13.6943 16.7779 14.4384C18.3532 15.1824 19.7442 16.2661 20.8509 17.6116C21.3772 18.2514 21.2851 19.1967 20.6453 19.7229C20.0055 20.2492 19.0602 20.1571 18.534 19.5173C17.7087 18.514 16.6714 17.7058 15.4967 17.151C14.322 16.5962 13.039 16.3085 11.7398 16.3085C10.4406 16.3085 9.15762 16.5962 7.98289 17.151C6.80816 17.7058 5.7709 18.514 4.94562 19.5173C4.41937 20.1571 3.47409 20.2492 2.83429 19.7229C2.19448 19.1967 2.10243 18.2514 2.62868 17.6116C3.7354 16.2661 5.12638 15.1824 6.70171 14.4384Z" fill="currentColor"/>
<path fill-rule="evenodd" clip-rule="evenodd" d="M18.6928 4.75273C19.0593 5.49567 18.7542 6.39506 18.0112 6.76157C17.0343 7.24355 16.2125 8.20874 15.6111 9.66509C15.0107 11.1193 14.6799 12.953 14.6269 14.9468C14.6049 15.775 13.9158 16.4285 13.0876 16.4065C12.2595 16.3845 11.606 15.6954 11.628 14.8672C11.6876 12.6221 12.0601 10.4045 12.8382 8.5201C13.6155 6.63783 14.8475 4.97714 16.684 4.07116C17.4269 3.70464 18.3263 4.00979 18.6928 4.75273Z" fill="currentColor"/>
<path fill-rule="evenodd" clip-rule="evenodd" d="M14.4613 3.77966C13.7389 3.32215 12.8685 3.15921 12.0296 3.3244C11.2168 3.48446 10.4281 2.95528 10.268 2.14246C10.108 1.32964 10.6372 0.540976 11.45 0.380926C13.0427 0.0673061 14.6951 0.376653 16.0665 1.2452C17.4378 2.11376 18.4238 3.47532 18.8211 5.04927C19.0238 5.8525 18.537 6.668 17.7338 6.87074C16.9305 7.07348 16.115 6.58668 15.9123 5.78344C15.703 4.95437 15.1837 4.23717 14.4613 3.77966Z" fill="currentColor"/>
<path fill-rule="evenodd" clip-rule="evenodd" d="M16.4737 4.19749C17.8031 3.24397 19.4348 2.80859 21.0625 2.97313C22.6901 3.13768 24.2017 3.89083 25.3133 5.09112C25.8762 5.69893 25.8398 6.64798 25.232 7.21088C24.6242 7.77378 23.6752 7.73737 23.1123 7.12956C22.4973 6.46558 21.6611 6.04895 20.7607 5.95792C19.8603 5.8669 18.9577 6.10774 18.2223 6.63522C17.5491 7.11808 16.612 6.9638 16.1292 6.29064C15.6463 5.61748 15.8006 4.68035 16.4737 4.19749Z" fill="currentColor"/>
<path fill-rule="evenodd" clip-rule="evenodd" d="M16.7541 6.79377C15.8728 6.41375 14.8865 6.35282 13.9651 6.62147C13.0436 6.89012 12.2446 7.47154 11.7056 8.26569C11.2403 8.95113 10.3075 9.12962 9.62208 8.66437C8.93664 8.19911 8.75815 7.26629 9.2234 6.58085C10.1543 5.20941 11.5341 4.20532 13.1254 3.74138C14.6768 3.28906 16.3346 3.37774 17.8272 3.99064C19.3586 4.39805 20.6813 5.36985 21.5277 6.71327C22.3966 8.09249 22.6954 9.75542 22.3611 11.3509C22.1912 12.1617 21.3961 12.6812 20.5853 12.5113C19.7745 12.3414 19.255 11.5464 19.4249 10.7356C19.5996 9.90194 19.4434 9.03304 18.9894 8.31239C18.5354 7.59173 17.8191 7.07575 16.9917 6.8734C16.9104 6.85353 16.831 6.82689 16.7541 6.79377Z" fill="currentColor"/>
</g></symbol><symbol id="calendar" viewBox="0 0 30 30"><g fill="none">
<path d="M23.75 27.5H6.25C5.58696 27.5 4.95107 27.2366 4.48223 26.7678C4.01339 26.2989 3.75 25.663 3.75 25V7.5C3.75 6.83696 4.01339 6.20107 4.48223 5.73223C4.95107 5.26339 5.58696 5 6.25 5H8.75V2.5H11.25V5H18.75V2.5H21.25V5H23.75C24.413 5 25.0489 5.26339 25.5178 5.73223C25.9866 6.20107 26.25 6.83696 26.25 7.5V25C26.25 25.663 25.9866 26.2989 25.5178 26.7678C25.0489 27.2366 24.413 27.5 23.75 27.5ZM6.25 12.5V25H23.75V12.5H6.25ZM6.25 7.5V10H23.75V7.5H6.25ZM21.25 22.5H18.75V20H21.25V22.5ZM16.25 22.5H13.75V20H16.25V22.5ZM11.25 22.5H8.75V20H11.25V22.5ZM21.25 17.5H18.75V15H21.25V17.5ZM16.25 17.5H13.75V15H16.25V17.5ZM11.25 17.5H8.75V15H11.25V17.5Z" fill="currentColor"/>
</g></symbol><symbol id="check-box" viewBox="0 0 30 30"><g fill="none">
<path d="M13.0167 20.95L23.0042 10.9625L21.0208 8.97917L13.0167 16.9833L8.97917 12.9458L6.99584 14.9292L13.0167 20.95ZM5.08334 27.75C4.30417 27.75 3.63692 27.4723 3.08159 26.917C2.52625 26.3617 2.24906 25.6949 2.25 24.9167V5.08334C2.25 4.30417 2.52767 3.63692 3.083 3.08159C3.63834 2.52625 4.30511 2.24906 5.08334 2.25H24.9167C25.6958 2.25 26.3631 2.52767 26.9184 3.083C27.4738 3.63834 27.7509 4.30511 27.75 5.08334V24.9167C27.75 25.6958 27.4723 26.3631 26.917 26.9184C26.3617 27.4738 25.6949 27.7509 24.9167 27.75H5.08334ZM5.08334 24.9167H24.9167V5.08334H5.08334V24.9167Z" fill="currentColor"/>
</g></symbol><symbol id="check" viewBox="0 0 16 16"><g fill="none">
<path fill-rule="evenodd" clip-rule="evenodd" d="M15.111 0.992192C15.6676 1.60577 15.6214 2.5544 15.0078 3.111C13.0883 4.85223 11.7654 6.30934 10.6687 8.02113C9.5661 9.74218 8.65112 11.7845 7.62116 14.7432C7.45006 15.2347 7.03642 15.6024 6.52824 15.7147C6.02007 15.827 5.49 15.6679 5.1277 15.2942L0.673151 10.7005C0.0964444 10.1058 0.111054 9.15612 0.705782 8.57941C1.30051 8.0027 2.25015 8.01731 2.82685 8.61204L5.62185 11.4944C6.40175 9.51112 7.19702 7.87881 8.1427 6.40275C9.43129 4.39148 10.9581 2.73425 12.9922 0.88902C13.6058 0.332417 14.5544 0.378609 15.111 0.992192Z" fill="currentColor"/>
</g></symbol><symbol id="children" viewBox="0 0 30 30"><g fill="none">
<path fill-rule="evenodd" clip-rule="evenodd" d="M24 5H6C4.89543 5 4 5.89543 4 7V23C4 24.1046 4.89543 25 6 25H24C25.1046 25 26 24.1046 26 23V7C26 5.89543 25.1046 5 24 5ZM6 3C3.79086 3 2 4.79086 2 7V23C2 25.2091 3.79086 27 6 27H24C26.2091 27 28 25.2091 28 23V7C28 4.79086 26.2091 3 24 3H6Z" fill="currentColor"/>
<path d="M11.9005 9.86632C11.9062 10.1151 11.8622 10.3625 11.771 10.594C11.6798 10.8254 11.5432 11.0364 11.3693 11.2143C11.1955 11.3923 10.9877 11.5337 10.7584 11.6303C10.5291 11.7268 10.2828 11.7765 10.034 11.7765C9.78518 11.7765 9.53887 11.7268 9.30955 11.6303C9.08023 11.5337 8.87253 11.3923 8.69864 11.2143C8.52475 11.0364 8.38818 10.8254 8.29697 10.594C8.20576 10.3625 8.16173 10.1151 8.16749 9.86632C8.17551 9.37652 8.37571 8.90949 8.72492 8.56595C9.07413 8.22241 9.54437 8.02988 10.0342 8.02988C10.5241 8.02988 10.9944 8.22241 11.3436 8.56595C11.6928 8.90949 11.893 9.37652 11.901 9.86632H11.9005Z" fill="currentColor"/>
<path fill-rule="evenodd" clip-rule="evenodd" d="M7.84801 15.9974C7.70744 16.2223 7.48329 16.3822 7.22487 16.4418C6.96644 16.5015 6.69491 16.456 6.47001 16.3154C6.2451 16.1749 6.08525 15.9507 6.02561 15.6923C5.96598 15.4339 6.01144 15.1623 6.15201 14.9374L6.15401 14.9344L6.15751 14.9289L6.16951 14.9099C6.23293 14.81 6.29811 14.7111 6.36501 14.6134C6.49251 14.4259 6.67201 14.1719 6.87601 13.9134C7.07551 13.6614 7.32051 13.3769 7.57951 13.1459C7.70901 13.0304 7.86501 12.9074 8.04151 12.8084C8.20751 12.7154 8.46701 12.6004 8.78451 12.6004H11.2825C11.6 12.6004 11.8595 12.7154 12.026 12.8084C12.202 12.9074 12.3585 13.0304 12.4875 13.1459C12.7465 13.3769 12.992 13.6614 13.191 13.9139C13.4428 14.2341 13.6786 14.5665 13.8975 14.9099L13.91 14.9289L13.9135 14.9339L13.915 14.9369C13.8975 14.9099 13.915 14.9369 13.915 14.9369C14.0517 15.1617 14.0944 15.4312 14.0337 15.6872C13.9731 15.9432 13.814 16.1649 13.5909 16.3044C13.3679 16.4439 13.0989 16.4899 12.8422 16.4325C12.5855 16.375 12.3618 16.2187 12.2195 15.9974L12.218 15.9954L12.21 15.9829C12.185 15.9435 12.1597 15.9044 12.134 15.8654V17.1074L12.4955 20.9049C12.5182 21.1638 12.4393 21.4213 12.2755 21.623C12.1116 21.8247 11.8757 21.9546 11.6176 21.9854C11.3596 22.0161 11.0998 21.9452 10.8931 21.7877C10.6865 21.6302 10.5492 21.3984 10.5105 21.1414L10 17.5714L9.49001 21.1414C9.45349 21.4004 9.31701 21.6347 9.10981 21.7942C8.90261 21.9537 8.64118 22.0257 8.38153 21.9948C8.12188 21.9638 7.88467 21.8324 7.72074 21.6287C7.5568 21.425 7.47918 21.1652 7.50451 20.9049L7.92451 16.4999H7.93351V15.8649C7.9077 15.9041 7.8822 15.9434 7.85701 15.9829L7.84951 15.9954L7.84801 15.9974Z" fill="currentColor"/>
<path d="M21.9005 9.86626C21.9005 10.3614 21.7038 10.8362 21.3537 11.1863C21.0036 11.5363 20.5288 11.733 20.0337 11.733C19.5387 11.733 19.0638 11.5363 18.7138 11.1863C18.3637 10.8362 18.167 10.3614 18.167 9.86626C18.167 9.37117 18.3637 8.89635 18.7138 8.54627C19.0638 8.19619 19.5387 7.99951 20.0337 7.99951C20.5288 7.99951 21.0036 8.19619 21.3537 8.54627C21.7038 8.89635 21.9005 9.37117 21.9005 9.86626Z" fill="currentColor"/>
<path fill-rule="evenodd" clip-rule="evenodd" d="M17.8507 15.8925C17.7092 16.1137 17.4865 16.2703 17.2305 16.3287C16.9745 16.387 16.7058 16.3423 16.4825 16.2043C16.2592 16.0662 16.0991 15.8459 16.0368 15.5908C15.9746 15.3357 16.0151 15.0664 16.1497 14.841L16.1512 14.838L16.1552 14.8325L16.1667 14.8135L16.2092 14.7465C16.4143 14.4273 16.6333 14.1174 16.8657 13.8175C17.0627 13.5655 17.3057 13.2805 17.5617 13.049C17.6902 12.9335 17.8452 12.8095 18.0207 12.7105C18.1857 12.6165 18.4457 12.5 18.7647 12.5H21.2357C21.5547 12.5 21.8147 12.6165 21.9802 12.71C22.1552 12.81 22.3102 12.9335 22.4387 13.049C22.6952 13.2805 22.9377 13.5655 23.1347 13.8175C23.3839 14.1377 23.6172 14.4699 23.8337 14.813L23.8457 14.8325L23.8507 14.841C23.9902 15.0666 24.0344 15.3383 23.9735 15.5965C23.9127 15.8546 23.7518 16.078 23.5262 16.2175C23.3006 16.357 23.0289 16.4012 22.7708 16.3403C22.5126 16.2795 22.2892 16.1186 22.1497 15.893L22.1482 15.8905L22.1407 15.878C22.0655 15.7595 21.988 15.6425 21.9082 15.527C22.1422 16.692 22.6032 18.29 22.8442 19.098C22.8643 19.1636 22.8706 19.2327 22.8626 19.3008C22.8547 19.369 22.8326 19.4348 22.798 19.494C22.7633 19.5532 22.7167 19.6046 22.6611 19.6448C22.6056 19.6851 22.5423 19.7134 22.4752 19.728C20.7067 20.0965 19.4687 20.087 17.5482 19.721C17.4793 19.7074 17.414 19.6795 17.3566 19.639C17.2992 19.5985 17.2511 19.5463 17.2152 19.4859C17.1793 19.4255 17.1566 19.3582 17.1485 19.2885C17.1404 19.2187 17.1471 19.148 17.1682 19.081C17.4207 18.269 17.8902 16.688 18.1127 15.497C18.0259 15.6224 17.9416 15.7494 17.8597 15.878L17.8522 15.8905L17.8507 15.8925Z" fill="currentColor"/>
<path fill-rule="evenodd" clip-rule="evenodd" d="M17.7993 20.5757V21.2497C17.7995 21.4314 17.8657 21.6069 17.9855 21.7435C18.1054 21.8801 18.2708 21.9686 18.451 21.9924C18.6311 22.0163 18.8138 21.9739 18.9651 21.8731C19.1163 21.7724 19.2259 21.6201 19.2733 21.4447L19.4708 20.7127C18.9118 20.6928 18.3541 20.6471 17.7993 20.5757ZM20.6268 20.7107L20.8253 21.4452C20.8728 21.6206 20.9823 21.7729 21.1337 21.8737C21.285 21.9744 21.4677 22.0168 21.6479 21.9929C21.8281 21.969 21.9935 21.8804 22.1133 21.7437C22.2332 21.607 22.2993 21.4315 22.2993 21.2497V20.5687C21.7442 20.6406 21.1861 20.6879 20.6268 20.7102V20.7107Z" fill="currentColor"/>
</g></symbol><symbol id="contact" viewBox="0 0 30 30"><g fill="none">
<path fill-rule="evenodd" clip-rule="evenodd" d="M6.25 6C5.42728 6 4.75 6.67728 4.75 7.5V25C4.75 25.8227 5.42728 26.5 6.25 26.5H23.75C24.5727 26.5 25.25 25.8227 25.25 25V7.5C25.25 6.67728 24.5727 6 23.75 6H6.25ZM2.75 7.5C2.75 5.57272 4.32272 4 6.25 4H23.75C25.6773 4 27.25 5.57272 27.25 7.5V25C27.25 26.9273 25.6773 28.5 23.75 28.5H6.25C4.32272 28.5 2.75 26.9273 2.75 25V7.5Z" fill="currentColor"/>
<path fill-rule="evenodd" clip-rule="evenodd" d="M20 1.5C20.5523 1.5 21 1.94772 21 2.5V5C21 5.55228 20.5523 6 20 6C19.4477 6 19 5.55228 19 5V2.5C19 1.94772 19.4477 1.5 20 1.5Z" fill="currentColor"/>
<path fill-rule="evenodd" clip-rule="evenodd" d="M10 1.5C10.5523 1.5 11 1.94772 11 2.5V5C11 5.55228 10.5523 6 10 6C9.44772 6 9 5.55228 9 5V2.5C9 1.94772 9.44772 1.5 10 1.5Z" fill="currentColor"/>
<path fill-rule="evenodd" clip-rule="evenodd" d="M15 11C13.4812 11 12.25 12.2312 12.25 13.75C12.25 15.2688 13.4812 16.5 15 16.5C16.5188 16.5 17.75 15.2688 17.75 13.75C17.75 12.2312 16.5188 11 15 11ZM10.25 13.75C10.25 11.1266 12.3766 9 15 9C17.6234 9 19.75 11.1266 19.75 13.75C19.75 16.3734 17.6234 18.5 15 18.5C12.3766 18.5 10.25 16.3734 10.25 13.75Z" fill="currentColor"/>
<path fill-rule="evenodd" clip-rule="evenodd" d="M8.20936 22.2838C10.0989 21.0691 12.409 20.25 15.0001 20.25C17.5546 20.25 19.8896 20.9243 21.8314 22.3113C22.2808 22.6323 22.3849 23.2568 22.0639 23.7062C21.7428 24.1557 21.1183 24.2597 20.6689 23.9387C19.1106 22.8257 17.1956 22.25 15.0001 22.25C12.8412 22.25 10.9013 22.9309 9.29088 23.9662C8.82631 24.2648 8.2076 24.1303 7.90894 23.6658C7.61029 23.2012 7.74479 22.5825 8.20936 22.2838Z" fill="currentColor"/>
</g></symbol><symbol id="cross" viewBox="0 0 16 16"><g fill="none">
<path d="M0.335683 0.335683C0.441822 0.229276 0.56791 0.144854 0.706726 0.0872515C0.845542 0.0296493 0.994358 0 1.14465 0C1.29494 0 1.44376 0.0296493 1.58257 0.0872515C1.72139 0.144854 1.84748 0.229276 1.95362 0.335683L8.0003 6.38465L14.047 0.335683C14.1532 0.229448 14.2793 0.145178 14.4181 0.0876841C14.5569 0.0301901 14.7057 0.000598232 14.8559 0.000598232C15.0062 0.000598232 15.155 0.0301901 15.2938 0.0876841C15.4326 0.145178 15.5587 0.229448 15.6649 0.335683C15.7711 0.441918 15.8554 0.568038 15.9129 0.70684C15.9704 0.845643 16 0.994411 16 1.14465C16 1.29489 15.9704 1.44366 15.9129 1.58246C15.8554 1.72126 15.7711 1.84738 15.6649 1.95362L9.61595 8.0003L15.6649 14.047C15.7711 14.1532 15.8554 14.2793 15.9129 14.4181C15.9704 14.5569 16 14.7057 16 14.8559C16 15.0062 15.9704 15.155 15.9129 15.2938C15.8554 15.4326 15.7711 15.5587 15.6649 15.6649C15.5587 15.7712 15.4326 15.8554 15.2938 15.9129C15.155 15.9704 15.0062 16 14.8559 16C14.7057 16 14.5569 15.9704 14.4181 15.9129C14.2793 15.8554 14.1532 15.7712 14.047 15.6649L8.0003 9.61595L1.95362 15.6649C1.84738 15.7712 1.72126 15.8554 1.58246 15.9129C1.44366 15.9704 1.29489 16 1.14465 16C0.994411 16 0.845643 15.9704 0.70684 15.9129C0.568037 15.8554 0.441918 15.7712 0.335683 15.6649C0.229448 15.5587 0.145178 15.4326 0.0876841 15.2938C0.0301901 15.155 0.000598232 15.0062 0.000598232 14.8559C0.000598232 14.7057 0.0301901 14.5569 0.0876841 14.4181C0.145178 14.2793 0.229448 14.1532 0.335683 14.047L6.38465 8.0003L0.335683 1.95362C0.229276 1.84748 0.144854 1.72139 0.0872515 1.58257C0.0296493 1.44376 0 1.29494 0 1.14465C0 0.994358 0.0296493 0.845542 0.0872515 0.706726C0.144854 0.56791 0.229276 0.441822 0.335683 0.335683Z" fill="currentColor"/>
</g></symbol><symbol id="glass" viewBox="0 0 28 28"><g fill="none">
<path fill-rule="evenodd" clip-rule="evenodd" d="M13.2499 3C7.58905 3 3 7.58905 3 13.2499C3 18.9108 7.58905 23.4999 13.2499 23.4999C18.9108 23.4999 23.4999 18.9108 23.4999 13.2499C23.4999 7.58905 18.9108 3 13.2499 3ZM0 13.2499C0 5.9322 5.9322 0 13.2499 0C20.5677 0 26.4999 5.9322 26.4999 13.2499C26.4999 20.5677 20.5677 26.4999 13.2499 26.4999C5.9322 26.4999 0 20.5677 0 13.2499Z" fill="currentColor"/>
<path fill-rule="evenodd" clip-rule="evenodd" d="M20.5061 20.5061C21.0919 19.9203 22.0416 19.9203 22.6274 20.5061L27.5607 25.4393C28.1465 26.0251 28.1465 26.9749 27.5607 27.5607C26.9749 28.1464 26.0252 28.1464 25.4394 27.5607L20.5061 22.6274C19.9203 22.0416 19.9203 21.0918 20.5061 20.5061Z" fill="currentColor"/>
</g></symbol><symbol id="input-arrow" viewBox="0 0 16 8"><g fill="none">
<path fill-rule="evenodd" clip-rule="evenodd" d="M0.65979 1.1664L1.34024 0.433609L7.67965 6.3202L14.1243 0.430908L14.7988 1.1691L7.67423 7.67981L0.65979 1.1664Z" fill="currentColor"/>
</g></symbol><symbol id="medical-bag" viewBox="0 0 28 28"><g fill="none">
<path fill-rule="evenodd" clip-rule="evenodd" d="M14 8C10.8554 8 7.75911 8.00519 5.21389 8.48353C4.58023 8.60262 4.07304 9.09317 3.92979 9.74717C3.50629 11.6807 3.5 13.4629 3.5 16.5C3.5 19.5371 3.50629 21.3193 3.92979 23.2528C4.07304 23.9068 4.58023 24.3974 5.21389 24.5165C7.75911 24.9948 10.8554 25 14 25C17.1446 25 20.2409 24.9948 22.7861 24.5165C23.4198 24.3974 23.927 23.9068 24.0702 23.2528C24.4937 21.3193 24.5 19.5371 24.5 16.5C24.5 13.4629 24.4937 11.6807 24.0702 9.74717C23.927 9.09317 23.4198 8.60262 22.7861 8.48353C20.2409 8.00519 17.1446 8 14 8ZM13.9134 5H14.0866C17.1302 4.99995 20.4922 4.9999 23.3402 5.53515C25.1813 5.88116 26.6052 7.29956 27.0007 9.1053C27.5001 11.3853 27.5001 13.4812 27.5 16.3919V16.6081C27.5001 19.5188 27.5001 21.6147 27.0007 23.8947C26.6052 25.7004 25.1813 27.1188 23.3402 27.4649C20.4922 28.0001 17.1302 28.0001 14.0866 28H13.9134C10.8698 28.0001 7.50778 28.0001 4.65978 27.4649C2.8187 27.1188 1.39477 25.7004 0.999263 23.8947C0.499872 21.6147 0.499926 19.5188 0.500002 16.6081V16.3919C0.499926 13.4812 0.499872 11.3853 0.999263 9.1053C1.39477 7.29956 2.8187 5.88116 4.65978 5.53515C7.50778 4.9999 10.8698 4.99995 13.9134 5Z" fill="currentColor"/>
<path fill-rule="evenodd" clip-rule="evenodd" d="M13 3C11.6193 3 10.5 4.11929 10.5 5.5V6.5H7.5V5.5C7.5 2.46243 9.96243 0 13 0H15C18.0376 0 20.5 2.46243 20.5 5.5V6.5H17.5V5.5C17.5 4.11929 16.3807 3 15 3H13Z" fill="currentColor"/>
<path fill-rule="evenodd" clip-rule="evenodd" d="M14 11C14.8284 11 15.5 11.6716 15.5 12.5V20.5C15.5 21.3284 14.8284 22 14 22C13.1716 22 12.5 21.3284 12.5 20.5V12.5C12.5 11.6716 13.1716 11 14 11Z" fill="currentColor"/>
<path fill-rule="evenodd" clip-rule="evenodd" d="M8.5 16.5C8.5 15.6716 9.17157 15 10 15H18C18.8284 15 19.5 15.6716 19.5 16.5C19.5 17.3284 18.8284 18 18 18H10C9.17157 18 8.5 17.3284 8.5 16.5Z" fill="currentColor"/>
</g></symbol><symbol id="pagination-arrow" viewBox="0 0 24 24"><g fill="none">
<path d="M16.1599 7.41L11.5799 12L16.1599 16.59L14.7499 18L8.74991 12L14.7499 6L16.1599 7.41Z" fill="currentColor"/>
</g></symbol><symbol id="phone" viewBox="0 0 28 28"><g fill="none">
<path fill-rule="evenodd" clip-rule="evenodd" d="M8.18287 4.10884C7.36683 3.42495 6.27368 3.59092 5.75265 4.31983C5.74304 4.33327 5.73335 4.34683 5.72358 4.36049C5.43719 4.76125 5.08084 5.2599 4.48596 6.00405C2.89666 7.99209 2.89914 10.8816 4.493 12.8574C5.98824 14.7109 7.52547 16.5426 9.23095 18.2481C10.9364 19.9536 12.7682 21.4908 14.6217 22.9861C16.5975 24.5799 19.487 24.5824 21.475 22.9931C22.2218 22.3961 22.7202 22.041 23.1167 21.7586C23.1564 21.7303 23.1952 21.7027 23.233 21.6756C23.9358 21.1737 24.0916 20.1436 23.4697 19.3879C22.6714 18.4179 21.7854 17.4852 20.8776 16.5297C20.8104 16.459 20.7431 16.3881 20.6758 16.3172C20.4742 16.1048 20.0742 16.0509 19.774 16.2906C19.5797 16.4458 19.3192 16.6647 18.7469 17.2012C18.2596 17.6581 17.5289 17.7377 16.9547 17.3964C13.8373 15.544 11.9009 13.5843 10.0826 10.5244C9.74141 9.95013 9.821 9.21948 10.2778 8.73218C10.8207 8.1531 11.0398 7.89188 11.1966 7.69529C11.4381 7.39263 11.378 7.00252 11.1739 6.81172C11.1364 6.77657 11.0988 6.74145 11.0613 6.70635C10.0995 5.80681 9.15597 4.92436 8.18287 4.10884ZM3.31205 2.57527C4.94624 0.289084 8.08533 0.112869 10.1098 1.80954C11.1473 2.679 12.1448 3.612 13.0909 4.49693C13.135 4.53823 13.1791 4.57943 13.223 4.62051C14.6485 5.95354 14.6917 8.12495 13.5417 9.56628C13.4559 9.67381 13.362 9.78826 13.2454 9.92405C14.4414 11.7299 15.7219 13.0187 17.5552 14.2336C17.6864 14.1211 17.7975 14.0297 17.9019 13.9464C19.3472 12.7922 21.5153 12.8441 22.8515 14.2517C22.9228 14.3268 22.9945 14.4023 23.0667 14.4782C23.9594 15.4177 24.9167 16.4251 25.7862 17.4816C27.4384 19.4893 27.1862 22.539 24.9765 24.117C24.9377 24.1447 24.8985 24.1726 24.8588 24.2009C24.4711 24.4772 24.0293 24.792 23.3483 25.3364C20.2662 27.8002 15.8144 27.8027 12.7381 25.321C10.8621 23.8076 8.93051 22.1903 7.10963 20.3694C5.28875 18.5485 3.67145 16.617 2.15805 14.741C-0.323632 11.6646 -0.321166 7.21281 2.1427 4.13078C2.687 3.44991 3.00611 3.00338 3.28354 2.61516C3.29309 2.60179 3.30259 2.5885 3.31205 2.57527Z" fill="currentColor"/>
</g></symbol><symbol id="pool" viewBox="0 0 28 28"><g fill="none">
<path fill-rule="evenodd" clip-rule="evenodd" d="M6.47855 20.9613C7.30698 20.9613 7.97855 21.6329 7.97855 22.4613C7.97855 23.0608 8.21672 23.6358 8.64066 24.0598C9.0646 24.4837 9.63958 24.7219 10.2391 24.7219C10.8387 24.7219 11.4137 24.4837 11.8376 24.0598C12.2615 23.6358 12.4997 23.0608 12.4997 22.4613C12.4997 21.6329 13.1713 20.9613 13.9997 20.9613C14.8281 20.9613 15.4997 21.6329 15.4997 22.4613C15.4997 23.0608 15.7379 23.6358 16.1618 24.0598C16.5857 24.4837 17.1607 24.7219 17.7603 24.7219C18.3598 24.7219 18.9348 24.4837 19.3587 24.0598C19.7827 23.6358 20.0208 23.0608 20.0208 22.4613C20.0208 21.6329 20.6924 20.9613 21.5208 20.9613C22.3493 20.9613 23.0208 21.6329 23.0208 22.4613C23.0208 23.0608 23.259 23.6358 23.683 24.0598C24.1069 24.4837 24.6819 24.7219 25.2814 24.7219H26.2216C27.05 24.7219 27.7216 25.3935 27.7216 26.2219C27.7216 27.0503 27.05 27.7219 26.2216 27.7219H25.2814C23.8862 27.7219 22.5482 27.1676 21.5616 26.1811C21.548 26.1674 21.5344 26.1537 21.5208 26.1399C21.5073 26.1537 21.4937 26.1674 21.4801 26.1811C20.4935 27.1676 19.1555 27.7219 17.7603 27.7219C16.3651 27.7219 15.027 27.1676 14.0405 26.1811C14.0268 26.1674 14.0132 26.1537 13.9997 26.1399C13.9862 26.1537 13.9726 26.1674 13.9589 26.1811C12.9724 27.1676 11.6343 27.7219 10.2391 27.7219C8.84393 27.7219 7.50589 27.1676 6.51934 26.1811C6.50566 26.1674 6.49206 26.1537 6.47855 26.1399C6.46504 26.1537 6.45144 26.1674 6.43776 26.1811C5.45121 27.1676 4.11317 27.7219 2.71798 27.7219H1.77783C0.949405 27.7219 0.277832 27.0503 0.277832 26.2219C0.277832 25.3935 0.949405 24.7219 1.77783 24.7219H2.71798C3.31752 24.7219 3.8925 24.4837 4.31644 24.0598C4.74038 23.6358 4.97855 23.0608 4.97855 22.4613C4.97855 21.6329 5.65012 20.9613 6.47855 20.9613Z" fill="currentColor"/>
<path fill-rule="evenodd" clip-rule="evenodd" d="M9.2989 3.27814C8.69936 3.27814 8.12438 3.5163 7.70044 3.94024C7.2765 4.36418 7.03833 4.93917 7.03833 5.53871C7.03833 6.36714 6.36676 7.03871 5.53833 7.03871C4.7099 7.03871 4.03833 6.36714 4.03833 5.53871C4.03833 4.14352 4.59257 2.80547 5.57912 1.81892C6.56567 0.832375 7.90371 0.278137 9.2989 0.278137C10.6941 0.278137 12.0321 0.832375 13.0187 1.81892C14.0052 2.80547 14.5595 4.14352 14.5595 5.53871V17.2935C14.5595 18.1219 13.8879 18.7935 13.0595 18.7935C12.2311 18.7935 11.5595 18.1219 11.5595 17.2935V5.53871C11.5595 4.93917 11.3213 4.36418 10.8974 3.94024C10.4734 3.5163 9.89845 3.27814 9.2989 3.27814Z" fill="currentColor"/>
<path fill-rule="evenodd" clip-rule="evenodd" d="M17.2004 1.77814C17.2004 0.94971 17.872 0.278137 18.7004 0.278137C20.0956 0.278137 21.4337 0.832375 22.4202 1.81892C23.4068 2.80547 23.961 4.14352 23.961 5.53871V17.2437C23.961 18.0721 23.2894 18.7437 22.461 18.7437C21.6326 18.7437 20.961 18.0721 20.961 17.2437V5.53871C20.961 4.93917 20.7228 4.36418 20.2989 3.94024C19.875 3.5163 19.3 3.27814 18.7004 3.27814C17.872 3.27814 17.2004 2.60656 17.2004 1.77814Z" fill="currentColor"/>
<path fill-rule="evenodd" clip-rule="evenodd" d="M11.5596 9.29929C11.5596 8.47086 12.2311 7.79929 13.0596 7.79929H22.461C23.2894 7.79929 23.961 8.47086 23.961 9.29929C23.961 10.1277 23.2894 10.7993 22.461 10.7993H13.0596C12.2311 10.7993 11.5596 10.1277 11.5596 9.29929Z" fill="currentColor"/>
<path fill-rule="evenodd" clip-rule="evenodd" d="M11.5596 14.9402C11.5596 14.1117 12.2311 13.4402 13.0596 13.4402H22.461C23.2894 13.4402 23.961 14.1117 23.961 14.9402C23.961 15.7686 23.2894 16.4402 22.461 16.4402H13.0596C12.2311 16.4402 11.5596 15.7686 11.5596 14.9402Z" fill="currentColor"/>
</g></symbol><symbol id="settings" viewBox="0 0 24 24"><g fill="none">
<g clip-path="url(#clip0_540_3939)">
<path fill-rule="evenodd" clip-rule="evenodd" d="M0 3.44446C0 2.89217 0.447715 2.44446 1 2.44446H5.88889C6.44117 2.44446 6.88889 2.89217 6.88889 3.44446C6.88889 3.99674 6.44117 4.44446 5.88889 4.44446H1C0.447715 4.44446 0 3.99674 0 3.44446ZM9.77778 3.44446C9.77778 2.89217 10.2255 2.44446 10.7778 2.44446H23C23.5523 2.44446 24 2.89217 24 3.44446C24 3.99674 23.5523 4.44446 23 4.44446H10.7778C10.2255 4.44446 9.77778 3.99674 9.77778 3.44446ZM0 12C0 11.4477 0.447715 11 1 11H15.6667C16.219 11 16.6667 11.4477 16.6667 12C16.6667 12.5523 16.219 13 15.6667 13H1C0.447715 13 0 12.5523 0 12ZM19.5556 12C19.5556 11.4477 20.0033 11 20.5556 11H23C23.5523 11 24 11.4477 24 12C24 12.5523 23.5523 13 23 13H20.5556C20.0033 13 19.5556 12.5523 19.5556 12ZM0 20.5556C0 20.0033 0.447715 19.5556 1 19.5556H3.44444C3.99673 19.5556 4.44444 20.0033 4.44444 20.5556C4.44444 21.1079 3.99673 21.5556 3.44444 21.5556H1C0.447715 21.5556 0 21.1079 0 20.5556ZM7.33333 20.5556C7.33333 20.0033 7.78105 19.5556 8.33333 19.5556H23C23.5523 19.5556 24 20.0033 24 20.5556C24 21.1079 23.5523 21.5556 23 21.5556H8.33333C7.78105 21.5556 7.33333 21.1079 7.33333 20.5556Z" fill="currentColor"/>
<path fill-rule="evenodd" clip-rule="evenodd" d="M8.33336 2C7.53562 2 6.88892 2.6467 6.88892 3.44444C6.88892 4.24219 7.53562 4.88889 8.33336 4.88889C9.13111 4.88889 9.7778 4.24219 9.7778 3.44444C9.7778 2.6467 9.13111 2 8.33336 2ZM4.88892 3.44444C4.88892 1.54213 6.43105 0 8.33336 0C10.2357 0 11.7778 1.54213 11.7778 3.44444C11.7778 5.34676 10.2357 6.88889 8.33336 6.88889C6.43105 6.88889 4.88892 5.34676 4.88892 3.44444Z" fill="currentColor"/>
<path fill-rule="evenodd" clip-rule="evenodd" d="M18.1109 10.5555C17.3132 10.5555 16.6665 11.2022 16.6665 12C16.6665 12.7977 17.3132 13.4444 18.1109 13.4444C18.9087 13.4444 19.5554 12.7977 19.5554 12C19.5554 11.2022 18.9087 10.5555 18.1109 10.5555ZM14.6665 12C14.6665 10.0977 16.2086 8.55554 18.1109 8.55554C20.0133 8.55554 21.5554 10.0977 21.5554 12C21.5554 13.9023 20.0133 15.4444 18.1109 15.4444C16.2086 15.4444 14.6665 13.9023 14.6665 12Z" fill="currentColor"/>
<path fill-rule="evenodd" clip-rule="evenodd" d="M5.88878 19.1111C5.09104 19.1111 4.44434 19.7578 4.44434 20.5556C4.44434 21.3533 5.09104 22 5.88878 22C6.68653 22 7.33322 21.3533 7.33322 20.5556C7.33322 19.7578 6.68653 19.1111 5.88878 19.1111ZM2.44434 20.5556C2.44434 18.6532 3.98647 17.1111 5.88878 17.1111C7.79109 17.1111 9.33322 18.6532 9.33322 20.5556C9.33322 22.4579 7.79109 24 5.88878 24C3.98647 24 2.44434 22.4579 2.44434 20.5556Z" fill="currentColor"/>
</g>

</g></symbol><symbol id="slider-arrow" viewBox="0 0 28 28"><g fill="none">
<path fill-rule="evenodd" clip-rule="evenodd" d="M21.1299 14C21.1299 13.1716 20.4583 12.5 19.6299 12.5L8.37012 12.5C7.54169 12.5 6.87012 13.1716 6.87012 14C6.87012 14.8284 7.54169 15.5 8.37012 15.5L19.6299 15.5C20.4583 15.5 21.1299 14.8284 21.1299 14Z" fill="currentColor"/>
<path fill-rule="evenodd" clip-rule="evenodd" d="M14.4118 8.35914C13.8976 9.00873 14.0075 9.95211 14.657 10.4662C16.3212 11.7833 17.0788 12.6537 18.1011 13.9997C17.0788 15.3458 16.3212 16.2161 14.657 17.5332C14.0075 18.0473 13.8976 18.9907 14.4118 19.6403C14.9259 20.2899 15.8693 20.3997 16.5189 19.8856C18.4487 18.3582 19.3762 17.2847 20.5338 15.7567C21.329 14.707 21.329 13.2924 20.5338 12.2428C19.3762 10.7148 18.4487 9.64127 16.5189 8.11385C15.8693 7.59973 14.9259 7.70955 14.4118 8.35914Z" fill="currentColor"/>
</g></symbol><symbol id="star-filled" viewBox="0 0 18 18"><g fill="none">
<g clip-path="url(#clip0_522_6858)">
<path d="M8.99994 0.859436L11.0206 7.07828H17.5594L12.2694 10.9217L14.29 17.1406L8.99994 13.2971L3.70987 17.1406L5.7305 10.9217L0.44043 7.07828H6.97931L8.99994 0.859436Z" fill="currentColor"/>
</g>

</g></symbol><symbol id="star" viewBox="0 0 18 18"><g fill="none">
<g clip-path="url(#clip0_522_6859)">
<path fill-rule="evenodd" clip-rule="evenodd" d="M11.0206 7.07825L8.99994 0.859406L6.97931 7.07825H0.44043L5.7305 10.9217L3.70987 17.1406L8.99994 13.2971L14.29 17.1406L12.2694 10.9217L17.5594 7.07825H11.0206ZM12.9429 8.57825H9.93075L8.99994 5.71351L8.06913 8.57825H5.05696L7.49385 10.3488L6.56304 13.2135L8.99994 11.443L11.4368 13.2135L10.506 10.3488L12.9429 8.57825Z" fill="currentColor"/>
</g>

</g></symbol><symbol id="user" viewBox="0 0 29 28"><g fill="none">
<path fill-rule="evenodd" clip-rule="evenodd" d="M14.5 3C8.42487 3 3.5 7.92487 3.5 14C3.5 20.0751 8.42487 25 14.5 25C20.5751 25 25.5 20.0751 25.5 14C25.5 7.92487 20.5751 3 14.5 3ZM0.5 14C0.5 6.26801 6.76801 0 14.5 0C22.232 0 28.5 6.26801 28.5 14C28.5 21.732 22.232 28 14.5 28C6.76801 28 0.5 21.732 0.5 14Z" fill="currentColor"/>
<path fill-rule="evenodd" clip-rule="evenodd" d="M14.5002 7.91296C13.2119 7.91296 12.1675 8.95734 12.1675 10.2457C12.1675 11.534 13.2119 12.5783 14.5002 12.5783C15.7885 12.5783 16.8329 11.534 16.8329 10.2457C16.8329 8.95734 15.7885 7.91296 14.5002 7.91296ZM9.16748 10.2457C9.16748 7.30049 11.555 4.91296 14.5002 4.91296C17.4453 4.91296 19.8329 7.30049 19.8329 10.2457C19.8329 13.1908 17.4453 15.5783 14.5002 15.5783C11.555 15.5783 9.16748 13.1908 9.16748 10.2457Z" fill="currentColor"/>
<path fill-rule="evenodd" clip-rule="evenodd" d="M14.5 19.8711C13.0778 19.8711 11.6993 20.3628 10.5982 21.2628C9.86502 21.862 9.28479 22.6178 8.89533 23.4674C10.5362 24.4412 12.4513 25 14.5 25C16.5486 25 18.4637 24.4412 20.1046 23.4674C19.7151 22.6178 19.1349 21.862 18.4017 21.2628C17.3006 20.3628 15.9221 19.8711 14.5 19.8711ZM8.69963 18.94C10.3366 17.602 12.3858 16.8711 14.5 16.8711C16.6141 16.8711 18.6633 17.602 20.3003 18.94C21.7968 20.1631 22.8646 21.8248 23.3583 23.684C23.5164 24.2794 23.2944 24.9109 22.7985 25.2764C20.4761 26.988 17.604 28 14.5 28C11.3959 28 8.52377 26.988 6.20145 25.2764C5.70554 24.9109 5.48352 24.2794 5.64163 23.684C6.13534 21.8248 7.20316 20.1631 8.69963 18.94Z" fill="currentColor"/>
</g></symbol></svg>