<svg width="34" height="44" viewBox="0 0 34 44" fill="none" xmlns="http://www.w3.org/2000/svg">
<g clip-path="url(#clip0_515_3290)">
<path d="M7.35705 4.97012L0 0V3.91559C0.000474791 4.83869 0.227282 5.74761 0.660567 6.56277C1.09385 7.37792 1.7204 8.07446 2.48536 8.5914L9.84297 13.561V9.64814C9.84298 8.72458 9.61635 7.81511 9.18293 6.99951C8.74952 6.1839 8.12256 5.48707 7.35705 4.97012Z" fill="#D36480"/>
<path d="M26.194 4.97012C25.4288 5.48689 24.8022 6.18339 24.3689 6.99859C23.9356 7.81378 23.7089 8.72279 23.7086 9.64594V13.5615L31.0657 8.59415C31.8307 8.07732 32.4574 7.3808 32.8907 6.56562C33.324 5.75044 33.5507 4.84147 33.551 3.91834V0L26.194 4.97012Z" fill="#F3E04E"/>
<path d="M23.6046 26.9312L7.8638 16.2983V19.8586C7.86385 20.7122 8.07336 21.5528 8.47396 22.3066C8.87456 23.0604 9.45402 23.7045 10.1615 24.1823L25.898 34.8118V31.2456C25.8979 30.3937 25.6887 29.5549 25.2889 28.8027C24.8891 28.0505 24.3107 27.4079 23.6046 26.9312Z" fill="#D36480"/>
<path d="M21.193 31.6365L18.0606 33.7521V40.0865L25.8815 34.8034L21.193 31.6365Z" fill="#F3E04E"/>
<path d="M18.0606 23.1883V17.3628L16.7758 18.2308L15.5081 17.3749V21.4621L18.0606 23.1883Z" fill="#96999C"/>
<path d="M18.0606 21.6534V23.1805L21.6145 25.5866L23.5766 24.2592C24.2939 23.7747 24.8813 23.1217 25.2874 22.3574C25.6935 21.5931 25.9058 20.7409 25.9057 19.8755V16.3538L18.0606 21.6534Z" fill="#F3E04E"/>
<path d="M15.5081 27.7964V42.2089C15.5046 42.3787 15.535 42.5475 15.5975 42.7054C15.6601 42.8633 15.7535 43.0071 15.8724 43.1284C15.9912 43.2497 16.1331 43.3461 16.2897 43.4119C16.4463 43.4777 16.6145 43.5116 16.7843 43.5116C16.9542 43.5116 17.1224 43.4777 17.279 43.4119C17.4355 43.3461 17.5774 43.2497 17.6963 43.1284C17.8152 43.0071 17.9086 42.8633 17.9711 42.7054C18.0337 42.5475 18.0641 42.3787 18.0606 42.2089V29.5204L15.5081 27.7964Z" fill="#96999C"/>
<path d="M15.5081 27.7964L12.1919 25.5559L7.87921 28.4692L12.5682 31.6367L15.5081 29.6563V27.7964Z" fill="#F3E04E"/>
<path d="M15.5081 33.6225L7.8638 28.4587V32.1064C7.86382 32.9337 8.06685 33.7484 8.45507 34.479C8.8433 35.2097 9.40487 35.8339 10.0906 36.2971L15.5081 39.9569V33.6225Z" fill="#D36480"/>
<path d="M16.7758 6.64233C14.9417 6.64219 13.1826 7.37041 11.8854 8.66683C10.5883 9.96325 9.85935 11.7217 9.85892 13.5554L16.7758 18.2274L23.6921 13.5554C23.6917 11.7218 22.9628 9.96343 21.6658 8.66702C20.3688 7.37062 18.6098 6.64233 16.7758 6.64233Z" fill="#D36480"/>
</g>
<defs>
<clipPath id="clip0_515_3290">
<rect width="33.551" height="43.4868" fill="white"/>
</clipPath>
</defs>
</svg>
